<svg version="1.1" xmlns="http://www.w3.org/2000/svg" xmlns:xlink="http://www.w3.org/1999/xlink" width="313.9127" height="211.02298" viewBox="0,0,313.9127,211.02298"><g transform="translate(-83.04365,-73.36969)"><g stroke-miterlimit="10"><path d="M86,281.5v-203h308v203z" fill="#000000" stroke="none" stroke-width="2" stroke-linecap="butt"/><path d="M85.54365,281.89267v-203.78534h308.9127v203.78534z" fill="none" stroke="#1fb7a0" stroke-width="5" stroke-linecap="butt"/><path d="M88.374,84.17237v-4.04336h304.06067v4.04336z" fill="none" stroke="#1fb7a0" stroke-width="5" stroke-linecap="butt"/><path d="M87.56533,86.59839v-3.23469h305.67801v3.23469z" fill="none" stroke="#1fb7a0" stroke-width="5" stroke-linecap="butt"/><text transform="translate(85.54877,86.02776) scale(0.29099,0.29099)" font-size="40" xml:space="preserve" fill="#ffffff" stroke="none" stroke-width="1" stroke-linecap="butt" font-family="Sans Serif" font-weight="normal" text-anchor="start"><tspan x="0" dy="0">550W Self compilation</tspan></text><g fill="#000000" stroke="#00ff52" stroke-width="2"><path d="M99.69612,152.58135v-40.55924h7.90849v40.55924z" stroke-linecap="butt"/><path d="M107.57577,152.51605v-44.0282h7.50868v44.0282z" stroke-linecap="butt"/><path d="M99.72578,111.38894v-8.19129h7.84999v8.19129z" stroke-linecap="butt"/><path d="M107.74642,162.24321v-9.89781h7.33803v9.89781z" stroke-linecap="butt"/><path d="M100.06708,122.38013h7.50868" stroke-linecap="round"/><path d="M114.05965,138.61759l-5.62973,-0.22171" stroke-linecap="round"/><path d="M103.65077,103.60842v7.50868" stroke-linecap="round"/><path d="M111.33011,152.24422v9.55651" stroke-linecap="round"/><path d="M99.72578,162.31268v-10.06846h7.50868v10.06846z" stroke-linecap="butt"/><path d="M103.48012,152.75617v8.5326" stroke-linecap="round"/><path d="M114.9138,149.51379h-15.18802" stroke-linecap="round"/><path d="M110.47685,107.87471v-2.73043h2.21848v3.24239" stroke-linecap="round"/><path d="M109.62359,103.23298h3.94206l-0.76651,0.76651h-2.29953z" stroke-linecap="round"/><path d="M111.58164,104.12098h-0.03804l-0.01268,-0.01268h0.06521z" stroke-linecap="round"/></g><g fill="#000000" stroke="#00ff52" stroke-width="2"><path d="M121.69612,152.58135v-40.55924h7.90848v40.55924z" stroke-linecap="butt"/><path d="M129.57577,152.51606v-44.0282h7.50868v44.0282z" stroke-linecap="butt"/><path d="M121.72578,111.38894v-8.1913h7.84999v8.1913z" stroke-linecap="butt"/><path d="M129.74642,162.24321v-9.89781h7.33803v9.89781z" stroke-linecap="butt"/><path d="M122.06709,122.38013h7.50869" stroke-linecap="round"/><path d="M136.05965,138.61759l-5.62973,-0.22171" stroke-linecap="round"/><path d="M125.65078,111.1171v-7.50869" stroke-linecap="round"/><path d="M133.33011,152.24422v9.55651" stroke-linecap="round"/><path d="M121.72578,162.31268v-10.06847h7.50869v10.06847z" stroke-linecap="butt"/><path d="M125.48012,152.75617v8.5326" stroke-linecap="round"/><path d="M121.72578,149.51378h15.18802" stroke-linecap="round"/><path d="M132.47685,107.87471v-2.73043h2.21847v3.24238" stroke-linecap="round"/><path d="M131.62359,103.23298h3.94206l-0.76651,0.76651h-2.29953z" stroke-linecap="round"/><path d="M133.58164,104.12098h-0.03804l-0.01268,-0.01268h0.06521z" stroke-linecap="round"/></g><g fill="none" stroke="#00ff52" stroke-width="2"><path d="M145.69612,152.58135v-40.55924h7.90848v40.55924z" stroke-linecap="butt"/><path d="M153.57577,152.51606v-44.0282h7.50868v44.0282z" stroke-linecap="butt"/><path d="M145.72578,111.38894v-8.1913h7.84999v8.1913z" stroke-linecap="butt"/><path d="M153.74642,162.24321v-9.89781h7.33803v9.89781z" stroke-linecap="butt"/><path d="M146.06709,122.38013h7.50868" stroke-linecap="round"/><path d="M160.05965,138.61759l-5.62973,-0.22171" stroke-linecap="round"/><path d="M149.65078,103.60841v7.50869" stroke-linecap="round"/><path d="M157.33011,161.80073v-9.55651" stroke-linecap="round"/><path d="M145.72578,162.31268v-10.06847h7.50869v10.06847z" stroke-linecap="butt"/><path d="M149.48012,152.75617v8.5326" stroke-linecap="round"/><path d="M145.72578,149.51378h15.18802" stroke-linecap="round"/><path d="M156.47685,107.87471v-2.73043h2.21847v3.24238" stroke-linecap="round"/><path d="M155.62359,103.23298h3.94206l-0.76651,0.76651h-2.29953z" stroke-linecap="round"/><path d="M157.58164,104.12098h-0.03804l-0.01268,-0.01268h0.06521z" stroke-linecap="round"/></g><g fill="none" stroke="#00ff52" stroke-width="2"><path d="M167.69612,152.58135v-40.55924h7.90848v40.55924z" stroke-linecap="butt"/><path d="M175.57577,152.51606v-44.0282h7.50868v44.0282z" stroke-linecap="butt"/><path d="M167.72578,111.38894v-8.1913h7.84999v8.1913z" stroke-linecap="butt"/><path d="M175.74642,162.24321v-9.89781h7.33803v9.89781z" stroke-linecap="butt"/><path d="M168.06709,122.38013h7.50868" stroke-linecap="round"/><path d="M182.05965,138.61759l-5.62973,-0.22171" stroke-linecap="round"/><path d="M171.65078,111.1171v-7.50869" stroke-linecap="round"/><path d="M179.33011,152.24422v9.55651" stroke-linecap="round"/><path d="M167.72578,162.31268v-10.06847h7.50869v10.06847z" stroke-linecap="butt"/><path d="M171.48012,152.75617v8.5326" stroke-linecap="round"/><path d="M167.72578,149.51378h15.18802" stroke-linecap="round"/><path d="M178.47685,107.87471v-2.73043h2.21847v3.24238" stroke-linecap="round"/><path d="M177.62359,103.23298h3.94206l-0.76651,0.76651h-2.29953z" stroke-linecap="round"/><path d="M179.58165,104.12098h-0.03804l-0.01269,-0.01268h0.06521z" stroke-linecap="round"/></g><g fill="none" stroke="#00ff52" stroke-width="2"><path d="M189.69612,152.58135v-40.55924h7.90848v40.55924z" stroke-linecap="butt"/><path d="M197.57577,152.51606v-44.0282h7.50868v44.0282z" stroke-linecap="butt"/><path d="M189.72578,111.38894v-8.1913h7.84999v8.1913z" stroke-linecap="butt"/><path d="M197.74642,162.24321v-9.89781h7.33803v9.89781z" stroke-linecap="butt"/><path d="M190.06709,122.38013h7.50868" stroke-linecap="round"/><path d="M198.42992,138.39588l5.62973,0.22171" stroke-linecap="round"/><path d="M193.65078,111.1171v-7.50869" stroke-linecap="round"/><path d="M201.33011,161.80073v-9.55651" stroke-linecap="round"/><path d="M189.72578,162.31268v-10.06847h7.50869v10.06847z" stroke-linecap="butt"/><path d="M193.48012,152.75617v8.5326" stroke-linecap="round"/><path d="M189.72578,149.51378h15.18802" stroke-linecap="round"/><path d="M200.47685,107.87471v-2.73043h2.21847v3.24238" stroke-linecap="round"/><path d="M199.62359,103.23298h3.94206l-0.76651,0.76651h-2.29953z" stroke-linecap="round"/><path d="M201.58164,104.12098h-0.03804l-0.01268,-0.01268h0.06521z" stroke-linecap="round"/></g><g fill="none" stroke="#00ff52" stroke-width="2"><path d="M211.69612,152.58135v-40.55924h7.90848v40.55924z" stroke-linecap="butt"/><path d="M219.57577,152.51606v-44.0282h7.50868v44.0282z" stroke-linecap="butt"/><path d="M211.72578,111.38894v-8.1913h7.84999v8.1913z" stroke-linecap="butt"/><path d="M219.74642,162.24321v-9.89781h7.33803v9.89781z" stroke-linecap="butt"/><path d="M212.06709,122.38013h7.50868" stroke-linecap="round"/><path d="M226.05965,138.61759l-5.62973,-0.22171" stroke-linecap="round"/><path d="M215.65078,111.1171v-7.50869" stroke-linecap="round"/><path d="M223.33011,152.24422v9.55651" stroke-linecap="round"/><path d="M211.72578,162.31268v-10.06847h7.50869v10.06847z" stroke-linecap="butt"/><path d="M215.48012,152.75617v8.5326" stroke-linecap="round"/><path d="M211.72578,149.51378h15.18802" stroke-linecap="round"/><path d="M222.47685,107.87471v-2.73043h2.21847v3.24238" stroke-linecap="round"/><path d="M221.62359,103.23298h3.94206l-0.76651,0.76651h-2.29953z" stroke-linecap="round"/><path d="M223.58165,104.12098h-0.03804l-0.01269,-0.01268h0.06521z" stroke-linecap="round"/></g><g fill="none" stroke="#00ff52" stroke-width="2"><path d="M235.69612,152.58135v-40.55924h7.90848v40.55924z" stroke-linecap="butt"/><path d="M243.57577,152.51606v-44.0282h7.50868v44.0282z" stroke-linecap="butt"/><path d="M235.72578,111.38894v-8.1913h7.84999v8.1913z" stroke-linecap="butt"/><path d="M243.74642,162.24321v-9.89781h7.33803v9.89781z" stroke-linecap="butt"/><path d="M236.06709,122.38013h7.50869" stroke-linecap="round"/><path d="M250.05965,138.61759l-5.62973,-0.22171" stroke-linecap="round"/><path d="M239.65078,111.1171v-7.50869" stroke-linecap="round"/><path d="M247.33011,161.80073v-9.55651" stroke-linecap="round"/><path d="M235.72578,162.31268v-10.06847h7.50869v10.06847z" stroke-linecap="butt"/><path d="M239.48012,152.75617v8.5326" stroke-linecap="round"/><path d="M235.72578,149.51378h15.18802" stroke-linecap="round"/><path d="M246.47685,107.87471v-2.73043h2.21847v3.24238" stroke-linecap="round"/><path d="M245.62359,103.23298h3.94206l-0.76651,0.76651h-2.29953z" stroke-linecap="round"/><path d="M247.58165,104.12098h-0.03804l-0.01269,-0.01268h0.06521z" stroke-linecap="round"/></g><g fill="none" stroke-width="2"><path d="M257.69612,152.58135v-40.55924h7.90848v40.55924z" stroke="#b6b6b6" stroke-linecap="butt"/><path d="M265.57577,152.51606v-44.0282h7.50868v44.0282z" stroke="#b6b6b6" stroke-linecap="butt"/><path d="M257.72578,111.38894v-8.1913h7.84999v8.1913z" stroke="#b6b6b6" stroke-linecap="butt"/><path d="M265.74642,162.24321v-9.89781h7.33803v9.89781z" stroke="#b6b6b6" stroke-linecap="butt"/><path d="M258.06709,122.38013h7.50869" stroke="#b6b6b6" stroke-linecap="round"/><path d="M272.05965,138.61759l-5.62973,-0.22171" stroke="#b6b6b6" stroke-linecap="round"/><path d="M261.65078,103.60841v7.50869" stroke="#b6b6b6" stroke-linecap="round"/><path d="M269.33011,152.24422v9.55651" stroke="#b6b6b6" stroke-linecap="round"/><path d="M257.72578,162.31268v-10.06847h7.50869v10.06847z" stroke="#b6b6b6" stroke-linecap="butt"/><path d="M261.48012,152.75617v8.5326" stroke="#b6b6b6" stroke-linecap="round"/><path d="M257.72578,149.51378h15.18802" stroke="#b6b6b6" stroke-linecap="round"/><path d="M268.47685,107.87471v-2.73043h2.21848v3.24238" stroke="#b6b6b6" stroke-linecap="round"/><path d="M267.62359,103.23298h3.94206l-0.76651,0.76651h-2.29953z" stroke="#b6b6b6" stroke-linecap="round"/><path d="M269.58163,104.12098h-0.03804l-0.01268,-0.01268h0.06522z" stroke="#000000" stroke-linecap="round"/></g><g fill="none" stroke-width="2"><path d="M99.69612,246.58135v-40.55924h7.90849v40.55924z" stroke="#b6b6b6" stroke-linecap="butt"/><path d="M107.57577,246.51606v-44.0282h7.50869v44.0282z" stroke="#b6b6b6" stroke-linecap="butt"/><path d="M99.72578,205.38894v-8.1913h7.84999v8.1913z" stroke="#b6b6b6" stroke-linecap="butt"/><path d="M107.74642,256.24321v-9.89781h7.33804v9.89781z" stroke="#b6b6b6" stroke-linecap="butt"/><path d="M100.06709,216.38013h7.50869" stroke="#b6b6b6" stroke-linecap="round"/><path d="M108.42992,232.39588l5.62973,0.22171" stroke="#b6b6b6" stroke-linecap="round"/><path d="M103.65078,197.60841v7.50869" stroke="#b6b6b6" stroke-linecap="round"/><path d="M111.33011,246.24422v9.55651" stroke="#b6b6b6" stroke-linecap="round"/><path d="M99.72578,256.31268v-10.06847h7.50869v10.06847z" stroke="#b6b6b6" stroke-linecap="butt"/><path d="M103.48012,246.75617v8.5326" stroke="#b6b6b6" stroke-linecap="round"/><path d="M99.72578,243.51379h15.18802" stroke="#b6b6b6" stroke-linecap="round"/><path d="M110.47685,201.87471v-2.73043h2.21847v3.24239" stroke="#b6b6b6" stroke-linecap="round"/><path d="M109.62359,197.23298h3.94206l-0.76651,0.76651h-2.29953z" stroke="#b6b6b6" stroke-linecap="round"/><path d="M111.58164,198.12098h-0.03804l-0.01268,-0.01268h0.06521z" stroke="#000000" stroke-linecap="round"/></g><g fill="none" stroke-width="2"><path d="M121.69612,246.58135v-40.55924h7.90848v40.55924z" stroke="#b6b6b6" stroke-linecap="butt"/><path d="M129.57577,246.51606v-44.0282h7.50868v44.0282z" stroke="#b6b6b6" stroke-linecap="butt"/><path d="M121.72578,205.38894v-8.1913h7.84999v8.1913z" stroke="#b6b6b6" stroke-linecap="butt"/><path d="M129.74642,256.24321v-9.89781h7.33803v9.89781z" stroke="#b6b6b6" stroke-linecap="butt"/><path d="M122.06709,216.38013h7.50869" stroke="#b6b6b6" stroke-linecap="round"/><path d="M136.05965,232.61759l-5.62973,-0.22171" stroke="#b6b6b6" stroke-linecap="round"/><path d="M125.65078,197.60841v7.50869" stroke="#b6b6b6" stroke-linecap="round"/><path d="M133.33011,246.24422v9.55651" stroke="#b6b6b6" stroke-linecap="round"/><path d="M121.72578,256.31268v-10.06847h7.50869v10.06847z" stroke="#b6b6b6" stroke-linecap="butt"/><path d="M125.48012,246.75617v8.5326" stroke="#b6b6b6" stroke-linecap="round"/><path d="M121.72578,243.51379h15.18802" stroke="#b6b6b6" stroke-linecap="round"/><path d="M132.47685,201.87471v-2.73043h2.21847v3.24239" stroke="#b6b6b6" stroke-linecap="round"/><path d="M131.62359,197.23298h3.94206l-0.76651,0.76651h-2.29953z" stroke="#b6b6b6" stroke-linecap="round"/><path d="M133.58165,198.12098h-0.03804l-0.01269,-0.01268h0.06521z" stroke="#000000" stroke-linecap="round"/></g><g fill="none" stroke-width="2"><path d="M145.69612,246.58135v-40.55924h7.90848v40.55924z" stroke="#b6b6b6" stroke-linecap="butt"/><path d="M153.57577,246.51606v-44.0282h7.50868v44.0282z" stroke="#b6b6b6" stroke-linecap="butt"/><path d="M145.72578,205.38894v-8.1913h7.84999v8.1913z" stroke="#b6b6b6" stroke-linecap="butt"/><path d="M153.74642,256.24321v-9.89781h7.33803v9.89781z" stroke="#b6b6b6" stroke-linecap="butt"/><path d="M153.57578,216.38013h-7.50869" stroke="#b6b6b6" stroke-linecap="round"/><path d="M160.05965,232.61759l-5.62973,-0.22171" stroke="#b6b6b6" stroke-linecap="round"/><path d="M149.65078,197.60841v7.50869" stroke="#b6b6b6" stroke-linecap="round"/><path d="M157.33011,246.24422v9.55651" stroke="#b6b6b6" stroke-linecap="round"/><path d="M145.72578,256.31268v-10.06847h7.50869v10.06847z" stroke="#b6b6b6" stroke-linecap="butt"/><path d="M149.48012,246.75617v8.5326" stroke="#b6b6b6" stroke-linecap="round"/><path d="M145.72578,243.51379h15.18802" stroke="#b6b6b6" stroke-linecap="round"/><path d="M156.47685,201.87471v-2.73043h2.21847v3.24239" stroke="#b6b6b6" stroke-linecap="round"/><path d="M155.62359,197.23298h3.94206l-0.76651,0.76651h-2.29953z" stroke="#b6b6b6" stroke-linecap="round"/><path d="M157.58165,198.12098h-0.03804l-0.01269,-0.01268h0.06521z" stroke="#000000" stroke-linecap="round"/></g><g fill="none" stroke-width="2"><path d="M167.69612,246.58135v-40.55924h7.90848v40.55924z" stroke="#b6b6b6" stroke-linecap="butt"/><path d="M175.57577,246.51606v-44.0282h7.50868v44.0282z" stroke="#b6b6b6" stroke-linecap="butt"/><path d="M167.72578,205.38894v-8.1913h7.84999v8.1913z" stroke="#b6b6b6" stroke-linecap="butt"/><path d="M175.74642,256.24321v-9.89781h7.33803v9.89781z" stroke="#b6b6b6" stroke-linecap="butt"/><path d="M175.57578,216.38013h-7.50869" stroke="#b6b6b6" stroke-linecap="round"/><path d="M176.42992,232.39588l5.62973,0.22171" stroke="#b6b6b6" stroke-linecap="round"/><path d="M171.65078,197.60841v7.50869" stroke="#b6b6b6" stroke-linecap="round"/><path d="M179.33011,246.24422v9.55651" stroke="#b6b6b6" stroke-linecap="round"/><path d="M167.72578,256.31268v-10.06847h7.50869v10.06847z" stroke="#b6b6b6" stroke-linecap="butt"/><path d="M171.48012,246.75617v8.5326" stroke="#b6b6b6" stroke-linecap="round"/><path d="M182.9138,243.51379h-15.18802" stroke="#b6b6b6" stroke-linecap="round"/><path d="M178.47685,201.87471v-2.73043h2.21847v3.24239" stroke="#b6b6b6" stroke-linecap="round"/><path d="M177.62359,197.23298h3.94206l-0.76651,0.76651h-2.29953z" stroke="#b6b6b6" stroke-linecap="round"/><path d="M179.58165,198.12098h-0.03804l-0.01269,-0.01268h0.06521z" stroke="#000000" stroke-linecap="round"/></g><g fill="none" stroke-width="2"><path d="M189.69612,246.58135v-40.55924h7.90848v40.55924z" stroke="#b6b6b6" stroke-linecap="butt"/><path d="M197.57577,246.51606v-44.0282h7.50868v44.0282z" stroke="#b6b6b6" stroke-linecap="butt"/><path d="M189.72578,205.38894v-8.1913h7.84999v8.1913z" stroke="#b6b6b6" stroke-linecap="butt"/><path d="M197.74642,256.24321v-9.89781h7.33803v9.89781z" stroke="#b6b6b6" stroke-linecap="butt"/><path d="M197.57578,216.38013h-7.50869" stroke="#b6b6b6" stroke-linecap="round"/><path d="M198.42992,232.39588l5.62973,0.22171" stroke="#b6b6b6" stroke-linecap="round"/><path d="M193.65078,197.60841v7.50869" stroke="#b6b6b6" stroke-linecap="round"/><path d="M201.33011,255.80073v-9.55651" stroke="#b6b6b6" stroke-linecap="round"/><path d="M189.72578,256.31268v-10.06847h7.50869v10.06847z" stroke="#b6b6b6" stroke-linecap="butt"/><path d="M193.48012,246.75617v8.5326" stroke="#b6b6b6" stroke-linecap="round"/><path d="M189.72578,243.51379h15.18802" stroke="#b6b6b6" stroke-linecap="round"/><path d="M200.47685,201.87471v-2.73043h2.21847v3.24239" stroke="#b6b6b6" stroke-linecap="round"/><path d="M199.62359,197.23298h3.94206l-0.76651,0.76651h-2.29953z" stroke="#b6b6b6" stroke-linecap="round"/><path d="M201.58165,198.12098h-0.03804l-0.01269,-0.01268h0.06521z" stroke="#000000" stroke-linecap="round"/></g><g fill="none" stroke-width="2"><path d="M211.69612,246.58135v-40.55924h7.90848v40.55924z" stroke="#b6b6b6" stroke-linecap="butt"/><path d="M219.57577,246.51606v-44.0282h7.50868v44.0282z" stroke="#b6b6b6" stroke-linecap="butt"/><path d="M211.72578,205.38894v-8.1913h7.84999v8.1913z" stroke="#b6b6b6" stroke-linecap="butt"/><path d="M219.74642,256.24321v-9.89781h7.33803v9.89781z" stroke="#b6b6b6" stroke-linecap="butt"/><path d="M219.57578,216.38013h-7.50869" stroke="#b6b6b6" stroke-linecap="round"/><path d="M226.05965,232.61759l-5.62973,-0.22171" stroke="#b6b6b6" stroke-linecap="round"/><path d="M215.65078,205.1171v-7.50869" stroke="#b6b6b6" stroke-linecap="round"/><path d="M223.33011,255.80073v-9.55651" stroke="#b6b6b6" stroke-linecap="round"/><path d="M211.72578,256.31268v-10.06847h7.50869v10.06847z" stroke="#b6b6b6" stroke-linecap="butt"/><path d="M215.48012,246.75617v8.5326" stroke="#b6b6b6" stroke-linecap="round"/><path d="M226.9138,243.51379h-15.18802" stroke="#b6b6b6" stroke-linecap="round"/><path d="M222.47685,201.87471v-2.73043h2.21847v3.24239" stroke="#b6b6b6" stroke-linecap="round"/><path d="M221.62359,197.23298h3.94206l-0.76651,0.76651h-2.29953z" stroke="#b6b6b6" stroke-linecap="round"/><path d="M223.58165,198.12098h-0.03804l-0.01269,-0.01268h0.06521z" stroke="#000000" stroke-linecap="round"/></g><g fill="none" stroke-width="2"><path d="M235.69612,246.58135v-40.55924h7.90848v40.55924z" stroke="#b6b6b6" stroke-linecap="butt"/><path d="M243.57577,246.51606v-44.0282h7.50868v44.0282z" stroke="#b6b6b6" stroke-linecap="butt"/><path d="M235.72578,205.38894v-8.1913h7.84999v8.1913z" stroke="#b6b6b6" stroke-linecap="butt"/><path d="M243.74642,256.24321v-9.89781h7.33803v9.89781z" stroke="#b6b6b6" stroke-linecap="butt"/><path d="M243.57578,216.38013h-7.50869" stroke="#b6b6b6" stroke-linecap="round"/><path d="M250.05965,232.61759l-5.62973,-0.22171" stroke="#b6b6b6" stroke-linecap="round"/><path d="M239.65078,197.60841v7.50869" stroke="#b6b6b6" stroke-linecap="round"/><path d="M247.33011,255.80073v-9.55651" stroke="#b6b6b6" stroke-linecap="round"/><path d="M235.72578,256.31268v-10.06847h7.50869v10.06847z" stroke="#b6b6b6" stroke-linecap="butt"/><path d="M239.48012,246.75617v8.5326" stroke="#b6b6b6" stroke-linecap="round"/><path d="M235.72578,243.51379h15.18802" stroke="#b6b6b6" stroke-linecap="round"/><path d="M246.47685,201.87471v-2.73043h2.21847v3.24239" stroke="#b6b6b6" stroke-linecap="round"/><path d="M245.62359,197.23298h3.94206l-0.76651,0.76651h-2.29953z" stroke="#b6b6b6" stroke-linecap="round"/><path d="M247.58165,198.12098h-0.03804l-0.01269,-0.01268h0.06521z" stroke="#000000" stroke-linecap="round"/></g><g fill="none" stroke-width="2"><path d="M257.69612,246.58135v-40.55924h7.90848v40.55924z" stroke="#b6b6b6" stroke-linecap="butt"/><path d="M265.57577,246.51606v-44.0282h7.50869v44.0282z" stroke="#b6b6b6" stroke-linecap="butt"/><path d="M257.72578,205.38894v-8.1913h7.84999v8.1913z" stroke="#b6b6b6" stroke-linecap="butt"/><path d="M265.74642,256.24321v-9.89781h7.33803v9.89781z" stroke="#b6b6b6" stroke-linecap="butt"/><path d="M258.06709,216.38013h7.50868" stroke="#b6b6b6" stroke-linecap="round"/><path d="M266.42992,232.39588l5.62973,0.22171" stroke="#b6b6b6" stroke-linecap="round"/><path d="M261.65078,197.60841v7.50869" stroke="#b6b6b6" stroke-linecap="round"/><path d="M269.33011,246.24422v9.55651" stroke="#b6b6b6" stroke-linecap="round"/><path d="M257.72578,256.31268v-10.06847h7.50869v10.06847z" stroke="#b6b6b6" stroke-linecap="butt"/><path d="M261.48012,246.75617v8.5326" stroke="#b6b6b6" stroke-linecap="round"/><path d="M272.9138,243.51379h-15.18802" stroke="#b6b6b6" stroke-linecap="round"/><path d="M268.47685,201.87471v-2.73043h2.21848v3.24239" stroke="#b6b6b6" stroke-linecap="round"/><path d="M267.62359,197.23298h3.94206l-0.76651,0.76651h-2.29954z" stroke="#b6b6b6" stroke-linecap="round"/><path d="M269.58163,198.12098h-0.03804l-0.01268,-0.01268h0.06521z" stroke="#000000" stroke-linecap="round"/></g><g fill="none" stroke-width="2"><path d="M280.69612,152.58135v-40.55924h7.90848v40.55924z" stroke="#b6b6b6" stroke-linecap="butt"/><path d="M288.57577,152.51606v-44.0282h7.50868v44.0282z" stroke="#b6b6b6" stroke-linecap="butt"/><path d="M280.72578,111.38894v-8.1913h7.84999v8.1913z" stroke="#b6b6b6" stroke-linecap="butt"/><path d="M288.74642,162.24322v-9.89781h7.33803v9.89781z" stroke="#b6b6b6" stroke-linecap="butt"/><path d="M281.06709,122.38013h7.50869" stroke="#b6b6b6" stroke-linecap="round"/><path d="M289.42992,138.39589l5.62973,0.22171" stroke="#b6b6b6" stroke-linecap="round"/><path d="M284.65078,103.60842v7.50869" stroke="#b6b6b6" stroke-linecap="round"/><path d="M292.33011,152.24422v9.55651" stroke="#b6b6b6" stroke-linecap="round"/><path d="M280.72578,162.31268v-10.06847h7.50869v10.06847z" stroke="#b6b6b6" stroke-linecap="butt"/><path d="M284.48012,161.28877v-8.5326" stroke="#b6b6b6" stroke-linecap="round"/><path d="M280.72578,149.51379h15.18802" stroke="#b6b6b6" stroke-linecap="round"/><path d="M291.47685,107.87472v-2.73043h2.21848v3.24238" stroke="#b6b6b6" stroke-linecap="round"/><path d="M290.62359,103.23298h3.94206l-0.76651,0.76651h-2.29953z" stroke="#b6b6b6" stroke-linecap="round"/><path d="M292.58163,104.12098h-0.03804l-0.01268,-0.01268h0.06522z" stroke="#000000" stroke-linecap="round"/></g><g fill="none" stroke-width="2"><path d="M304.69612,152.58135v-40.55924h7.90848v40.55924z" stroke="#b6b6b6" stroke-linecap="butt"/><path d="M312.57577,152.51606v-44.0282h7.50868v44.0282z" stroke="#b6b6b6" stroke-linecap="butt"/><path d="M304.72578,111.38894v-8.1913h7.84999v8.1913z" stroke="#b6b6b6" stroke-linecap="butt"/><path d="M312.74642,162.24322v-9.89781h7.33803v9.89781z" stroke="#b6b6b6" stroke-linecap="butt"/><path d="M305.06709,122.38013h7.50869" stroke="#b6b6b6" stroke-linecap="round"/><path d="M319.05965,138.6176l-5.62973,-0.22171" stroke="#b6b6b6" stroke-linecap="round"/><path d="M308.65078,103.60842v7.50869" stroke="#b6b6b6" stroke-linecap="round"/><path d="M316.33011,152.24422v9.55651" stroke="#b6b6b6" stroke-linecap="round"/><path d="M304.72578,162.31268v-10.06847h7.50869v10.06847z" stroke="#b6b6b6" stroke-linecap="butt"/><path d="M308.48012,161.28877v-8.5326" stroke="#b6b6b6" stroke-linecap="round"/><path d="M304.72578,149.51379h15.18802" stroke="#b6b6b6" stroke-linecap="round"/><path d="M315.47685,107.87472v-2.73043h2.21848v3.24238" stroke="#b6b6b6" stroke-linecap="round"/><path d="M314.62359,103.23298h3.94206l-0.76651,0.76651h-2.29953z" stroke="#b6b6b6" stroke-linecap="round"/><path d="M316.58163,104.12098h-0.03804l-0.01268,-0.01268h0.06522z" stroke="#000000" stroke-linecap="round"/></g><g fill="none" stroke-width="2"><path d="M326.69612,152.58135v-40.55924h7.90848v40.55924z" stroke="#b6b6b6" stroke-linecap="butt"/><path d="M334.57577,152.51606v-44.0282h7.50869v44.0282z" stroke="#b6b6b6" stroke-linecap="butt"/><path d="M326.72578,111.38894v-8.1913h7.84999v8.1913z" stroke="#b6b6b6" stroke-linecap="butt"/><path d="M334.74642,162.24322v-9.89781h7.33803v9.89781z" stroke="#b6b6b6" stroke-linecap="butt"/><path d="M327.06709,122.38013h7.50868" stroke="#b6b6b6" stroke-linecap="round"/><path d="M335.42992,138.39589l5.62973,0.22171" stroke="#b6b6b6" stroke-linecap="round"/><path d="M330.65078,103.60842v7.50869" stroke="#b6b6b6" stroke-linecap="round"/><path d="M338.33011,152.24422v9.55651" stroke="#b6b6b6" stroke-linecap="round"/><path d="M326.72578,162.31268v-10.06847h7.50869v10.06847z" stroke="#b6b6b6" stroke-linecap="butt"/><path d="M330.48012,152.75617v8.5326" stroke="#b6b6b6" stroke-linecap="round"/><path d="M326.72578,149.51379h15.18802" stroke="#b6b6b6" stroke-linecap="round"/><path d="M337.47685,107.87472v-2.73043h2.21848v3.24238" stroke="#b6b6b6" stroke-linecap="round"/><path d="M336.62359,103.23298h3.94206l-0.76651,0.76651h-2.29954z" stroke="#b6b6b6" stroke-linecap="round"/><path d="M338.58164,104.12098h-0.03804l-0.01268,-0.01268h0.06521z" stroke="#000000" stroke-linecap="round"/></g><g fill="none" stroke-width="2"><path d="M348.69612,152.58135v-40.55924h7.90848v40.55924z" stroke="#b6b6b6" stroke-linecap="butt"/><path d="M356.57577,152.51606v-44.0282h7.50869v44.0282z" stroke="#b6b6b6" stroke-linecap="butt"/><path d="M348.72578,111.38894v-8.1913h7.84999v8.1913z" stroke="#b6b6b6" stroke-linecap="butt"/><path d="M356.74642,162.24322v-9.89781h7.33803v9.89781z" stroke="#b6b6b6" stroke-linecap="butt"/><path d="M349.06709,122.38013h7.50868" stroke="#b6b6b6" stroke-linecap="round"/><path d="M357.42992,138.39589l5.62973,0.22171" stroke="#b6b6b6" stroke-linecap="round"/><path d="M352.65078,103.60842v7.50869" stroke="#b6b6b6" stroke-linecap="round"/><path d="M360.33011,152.24422v9.55651" stroke="#b6b6b6" stroke-linecap="round"/><path d="M348.72578,162.31268v-10.06847h7.50869v10.06847z" stroke="#b6b6b6" stroke-linecap="butt"/><path d="M352.48012,152.75617v8.5326" stroke="#b6b6b6" stroke-linecap="round"/><path d="M363.9138,149.51379h-15.18802" stroke="#b6b6b6" stroke-linecap="round"/><path d="M359.47685,107.87472v-2.73043h2.21848v3.24238" stroke="#b6b6b6" stroke-linecap="round"/><path d="M358.62359,103.23298h3.94206l-0.76651,0.76651h-2.29954z" stroke="#b6b6b6" stroke-linecap="round"/><path d="M360.58164,104.12098h-0.03804l-0.01268,-0.01268h0.06521z" stroke="#000000" stroke-linecap="round"/></g><g fill="none" stroke-width="2"><path d="M370.69612,152.58135v-40.55924h7.90848v40.55924z" stroke="#b6b6b6" stroke-linecap="butt"/><path d="M378.57577,152.51606v-44.0282h7.50869v44.0282z" stroke="#b6b6b6" stroke-linecap="butt"/><path d="M370.72578,111.38894v-8.1913h7.84999v8.1913z" stroke="#b6b6b6" stroke-linecap="butt"/><path d="M378.74642,162.24322v-9.89781h7.33803v9.89781z" stroke="#b6b6b6" stroke-linecap="butt"/><path d="M371.06709,122.38013h7.50868" stroke="#b6b6b6" stroke-linecap="round"/><path d="M379.42992,138.39589l5.62973,0.22171" stroke="#b6b6b6" stroke-linecap="round"/><path d="M374.65078,103.60842v7.50869" stroke="#b6b6b6" stroke-linecap="round"/><path d="M382.33011,152.24422v9.55651" stroke="#b6b6b6" stroke-linecap="round"/><path d="M370.72578,162.31268v-10.06847h7.50869v10.06847z" stroke="#b6b6b6" stroke-linecap="butt"/><path d="M374.48012,161.28877v-8.5326" stroke="#b6b6b6" stroke-linecap="round"/><path d="M385.9138,149.51379h-15.18802" stroke="#b6b6b6" stroke-linecap="round"/><path d="M381.47685,107.87472v-2.73043h2.21848v3.24238" stroke="#b6b6b6" stroke-linecap="round"/><path d="M380.62359,103.23298h3.94206l-0.76651,0.76651h-2.29954z" stroke="#b6b6b6" stroke-linecap="round"/><path d="M382.58164,104.12098h-0.03804l-0.01268,-0.01268h0.06521z" stroke="#000000" stroke-linecap="round"/></g><g fill="none" stroke-width="2"><path d="M280.69612,246.58135v-40.55924h7.90848v40.55924z" stroke="#b6b6b6" stroke-linecap="butt"/><path d="M288.57577,246.51606v-44.0282h7.50869v44.0282z" stroke="#b6b6b6" stroke-linecap="butt"/><path d="M280.72578,205.38894v-8.19129h7.84999v8.19129z" stroke="#b6b6b6" stroke-linecap="butt"/><path d="M288.74642,256.24321v-9.89781h7.33803v9.89781z" stroke="#b6b6b6" stroke-linecap="butt"/><path d="M281.06709,216.38013h7.50868" stroke="#b6b6b6" stroke-linecap="round"/><path d="M295.05965,232.6176l-5.62973,-0.22171" stroke="#b6b6b6" stroke-linecap="round"/><path d="M284.65078,197.60841v7.50869" stroke="#b6b6b6" stroke-linecap="round"/><path d="M292.33011,246.24422v9.55651" stroke="#b6b6b6" stroke-linecap="round"/><path d="M280.72578,256.31268v-10.06847h7.50869v10.06847z" stroke="#b6b6b6" stroke-linecap="butt"/><path d="M284.48012,246.75617v8.5326" stroke="#b6b6b6" stroke-linecap="round"/><path d="M280.72578,243.51379h15.18802" stroke="#b6b6b6" stroke-linecap="round"/><path d="M291.47685,201.87471v-2.73043h2.21848v3.24238" stroke="#b6b6b6" stroke-linecap="round"/><path d="M290.62359,197.23298h3.94206l-0.76651,0.76651h-2.29954z" stroke="#b6b6b6" stroke-linecap="round"/><path d="M292.58163,198.12098h-0.03804l-0.01268,-0.01268h0.06521z" stroke="#000000" stroke-linecap="round"/></g><g fill="none" stroke-width="2"><path d="M304.69612,246.58135v-40.55924h7.90848v40.55924z" stroke="#b6b6b6" stroke-linecap="butt"/><path d="M312.57577,246.51606v-44.0282h7.50869v44.0282z" stroke="#b6b6b6" stroke-linecap="butt"/><path d="M304.72578,205.38894v-8.19129h7.84999v8.19129z" stroke="#b6b6b6" stroke-linecap="butt"/><path d="M312.74642,256.24321v-9.89781h7.33803v9.89781z" stroke="#b6b6b6" stroke-linecap="butt"/><path d="M312.57577,216.38013h-7.50868" stroke="#b6b6b6" stroke-linecap="round"/><path d="M319.05965,232.6176l-5.62973,-0.22171" stroke="#b6b6b6" stroke-linecap="round"/><path d="M308.65078,197.60841v7.50869" stroke="#b6b6b6" stroke-linecap="round"/><path d="M316.33011,246.24422v9.55651" stroke="#b6b6b6" stroke-linecap="round"/><path d="M304.72578,256.31268v-10.06847h7.50869v10.06847z" stroke="#b6b6b6" stroke-linecap="butt"/><path d="M308.48012,246.75617v8.5326" stroke="#b6b6b6" stroke-linecap="round"/><path d="M304.72578,243.51379h15.18802" stroke="#b6b6b6" stroke-linecap="round"/><path d="M315.47685,201.87471v-2.73043h2.21848v3.24238" stroke="#b6b6b6" stroke-linecap="round"/><path d="M314.62359,197.23298h3.94206l-0.76651,0.76651h-2.29954z" stroke="#b6b6b6" stroke-linecap="round"/><path d="M316.58163,198.12098h-0.03804l-0.01268,-0.01268h0.06521z" stroke="#000000" stroke-linecap="round"/></g><g fill="none" stroke-width="2"><path d="M326.69612,246.58135v-40.55924h7.90848v40.55924z" stroke="#b6b6b6" stroke-linecap="butt"/><path d="M334.57577,246.51606v-44.0282h7.50869v44.0282z" stroke="#b6b6b6" stroke-linecap="butt"/><path d="M326.72578,205.38894v-8.19129h7.84999v8.19129z" stroke="#b6b6b6" stroke-linecap="butt"/><path d="M334.74642,256.24321v-9.89781h7.33803v9.89781z" stroke="#b6b6b6" stroke-linecap="butt"/><path d="M334.57577,216.38013h-7.50868" stroke="#b6b6b6" stroke-linecap="round"/><path d="M335.42992,232.39589l5.62973,0.22171" stroke="#b6b6b6" stroke-linecap="round"/><path d="M330.65078,197.60841v7.50869" stroke="#b6b6b6" stroke-linecap="round"/><path d="M338.33011,255.80073v-9.55651" stroke="#b6b6b6" stroke-linecap="round"/><path d="M326.72578,256.31268v-10.06847h7.50869v10.06847z" stroke="#b6b6b6" stroke-linecap="butt"/><path d="M330.48012,255.28877v-8.5326" stroke="#b6b6b6" stroke-linecap="round"/><path d="M326.72578,243.51379h15.18802" stroke="#b6b6b6" stroke-linecap="round"/><path d="M337.47685,201.87471v-2.73043h2.21848v3.24238" stroke="#b6b6b6" stroke-linecap="round"/><path d="M336.62359,197.23298h3.94206l-0.76651,0.76651h-2.29954z" stroke="#b6b6b6" stroke-linecap="round"/><path d="M338.58164,198.12098h-0.03804l-0.01268,-0.01268h0.06521z" stroke="#000000" stroke-linecap="round"/></g><g fill="none" stroke-width="2"><path d="M348.69612,246.58135v-40.55924h7.90848v40.55924z" stroke="#b6b6b6" stroke-linecap="butt"/><path d="M356.57577,246.51606v-44.0282h7.50869v44.0282z" stroke="#b6b6b6" stroke-linecap="butt"/><path d="M348.72578,205.38894v-8.19129h7.84999v8.19129z" stroke="#b6b6b6" stroke-linecap="butt"/><path d="M356.74642,256.24321v-9.89781h7.33803v9.89781z" stroke="#b6b6b6" stroke-linecap="butt"/><path d="M356.57577,216.38013h-7.50868" stroke="#b6b6b6" stroke-linecap="round"/><path d="M357.42992,232.39589l5.62973,0.22171" stroke="#b6b6b6" stroke-linecap="round"/><path d="M352.65078,197.60841v7.50869" stroke="#b6b6b6" stroke-linecap="round"/><path d="M360.33011,255.80073v-9.55651" stroke="#b6b6b6" stroke-linecap="round"/><path d="M348.72578,256.31268v-10.06847h7.50869v10.06847z" stroke="#b6b6b6" stroke-linecap="butt"/><path d="M352.48012,246.75617v8.5326" stroke="#b6b6b6" stroke-linecap="round"/><path d="M363.9138,243.51379h-15.18802" stroke="#b6b6b6" stroke-linecap="round"/><path d="M359.47685,201.87471v-2.73043h2.21848v3.24238" stroke="#b6b6b6" stroke-linecap="round"/><path d="M358.62359,197.23298h3.94206l-0.76651,0.76651h-2.29954z" stroke="#b6b6b6" stroke-linecap="round"/><path d="M360.58164,198.12098h-0.03804l-0.01268,-0.01268h0.06521z" stroke="#000000" stroke-linecap="round"/></g><g fill="none" stroke-width="2"><path d="M370.69612,246.58135v-40.55924h7.90848v40.55924z" stroke="#b6b6b6" stroke-linecap="butt"/><path d="M378.57577,246.51606v-44.0282h7.50869v44.0282z" stroke="#b6b6b6" stroke-linecap="butt"/><path d="M370.72578,205.38894v-8.19129h7.84999v8.19129z" stroke="#b6b6b6" stroke-linecap="butt"/><path d="M378.74642,256.24321v-9.89781h7.33803v9.89781z" stroke="#b6b6b6" stroke-linecap="butt"/><path d="M371.06709,216.38013h7.50868" stroke="#b6b6b6" stroke-linecap="round"/><path d="M379.42992,232.39589l5.62973,0.22171" stroke="#b6b6b6" stroke-linecap="round"/><path d="M374.65078,197.60841v7.50869" stroke="#b6b6b6" stroke-linecap="round"/><path d="M382.33011,246.24422v9.55651" stroke="#b6b6b6" stroke-linecap="round"/><path d="M370.72578,256.31268v-10.06847h7.50869v10.06847z" stroke="#b6b6b6" stroke-linecap="butt"/><path d="M374.48012,255.28877v-8.5326" stroke="#b6b6b6" stroke-linecap="round"/><path d="M385.9138,243.51379h-15.18802" stroke="#b6b6b6" stroke-linecap="round"/><path d="M381.47685,201.87471v-2.73043h2.21848v3.24238" stroke="#b6b6b6" stroke-linecap="round"/><path d="M380.62359,197.23298h3.94206l-0.76651,0.76651h-2.29954z" stroke="#b6b6b6" stroke-linecap="round"/><path d="M382.58164,198.12098h-0.03804l-0.01268,-0.01268h0.06521z" stroke="#000000" stroke-linecap="round"/></g></g></g></svg>