<svg version="1.1" xmlns="http://www.w3.org/2000/svg" xmlns:xlink="http://www.w3.org/1999/xlink" width="638.5" height="352.5"><g transform="translate(79,-50)"><g data-paper-data="{&quot;isPaintingLayer&quot;:true}" fill="none" fill-rule="nonzero" stroke="none" stroke-width="none" stroke-linecap="none" stroke-linejoin="miter" stroke-miterlimit="10" stroke-dasharray="" stroke-dashoffset="0" font-family="none" font-weight="none" font-size="none" text-anchor="none" style="mix-blend-mode: normal"><path d="M-79,356v-306h636v306z" fill="#000000" stroke="none" stroke-width="0" stroke-linecap="butt"/><path d="M135.5,402.5v-58h424v58z" fill="#000000" stroke="none" stroke-width="0" stroke-linecap="butt"/><text transform="translate(11.5,101) scale(0.5,0.5)" font-size="40" xml:space="preserve" fill="#ffffff" fill-rule="nonzero" stroke="none" stroke-width="1" stroke-linecap="butt" stroke-linejoin="miter" stroke-miterlimit="10" stroke-dasharray="" stroke-dashoffset="0" font-family="Sans Serif" font-weight="normal" text-anchor="start" style="mix-blend-mode: normal"><tspan x="0" dy="0">火石</tspan></text><text transform="translate(55.5,100.5281) scale(0.28413,0.28413)" font-size="40" xml:space="preserve" fill="#ffffff" fill-rule="nonzero" stroke="none" stroke-width="1" stroke-linecap="butt" stroke-linejoin="miter" stroke-miterlimit="10" stroke-dasharray="" stroke-dashoffset="0" font-family="Sans Serif" font-weight="normal" text-anchor="start" style="mix-blend-mode: normal"><tspan x="0" dy="0">Lighter</tspan></text><path d="M23.5,127l20,25v132l-22,31" fill="none" stroke="#ffffff" stroke-width="2.5" stroke-linecap="round"/><path d="M467.5,315l-22,-31v-132l20,-25" data-paper-data="{&quot;index&quot;:null}" fill="none" stroke="#ffffff" stroke-width="2.5" stroke-linecap="round"/><text transform="translate(16.5,159.96312) scale(0.32559,0.32559)" font-size="40" xml:space="preserve" fill="#ffffff" fill-rule="nonzero" stroke="none" stroke-width="1" stroke-linecap="butt" stroke-linejoin="miter" stroke-miterlimit="10" stroke-dasharray="" stroke-dashoffset="0" font-family="Sans Serif" font-weight="normal" text-anchor="start" style="mix-blend-mode: normal"><tspan x="0" dy="0">A1</tspan><tspan x="0" dy="46.150000000000006px">B1</tspan><tspan x="0" dy="46.150000000000006px">C1</tspan><tspan x="0" dy="46.150000000000006px">D1</tspan><tspan x="0" dy="46.150000000000006px">E1</tspan><tspan x="0" dy="46.150000000000006px">F1</tspan><tspan x="0" dy="46.150000000000006px">G1</tspan><tspan x="0" dy="46.150000000000006px">H1</tspan><tspan x="0" dy="46.150000000000006px">I1</tspan><tspan x="0" dy="46.150000000000006px">J1</tspan></text><path d="M14.7002,161v-12.5h19v12.5z" fill="none" stroke="#ffffff" stroke-width="1.5" stroke-linecap="butt"/><path d="M14.7002,177v-13.5h19v13.5z" fill="none" stroke="#ffffff" stroke-width="1.5" stroke-linecap="butt"/><path d="M14.7002,192v-13.5h19v13.5z" fill="none" stroke="#ffffff" stroke-width="1.5" stroke-linecap="butt"/><path d="M14.7002,207v-13.5h19v13.5z" fill="none" stroke="#ffffff" stroke-width="1.5" stroke-linecap="butt"/><path d="M14.7002,222v-13.5h19v13.5z" fill="none" stroke="#ffffff" stroke-width="1.5" stroke-linecap="butt"/><path d="M14.7002,237v-13.5h19v13.5z" fill="none" stroke="#ffffff" stroke-width="1.5" stroke-linecap="butt"/><path d="M14.7002,252v-13.5h19v13.5z" fill="none" stroke="#ffffff" stroke-width="1.5" stroke-linecap="butt"/><path d="M14.7002,267v-13.5h19v13.5z" fill="none" stroke="#ffffff" stroke-width="1.5" stroke-linecap="butt"/><path d="M14.7002,282v-13.5h19v13.5z" fill="none" stroke="#ffffff" stroke-width="1.5" stroke-linecap="butt"/><path d="M14.7002,296.5v-13.5h19v13.5z" fill="none" stroke="#ffffff" stroke-width="1.5" stroke-linecap="butt"/><text transform="translate(457.5,157.96312) scale(0.32559,0.32559)" font-size="40" xml:space="preserve" fill="#ffffff" fill-rule="nonzero" stroke="none" stroke-width="1" stroke-linecap="butt" stroke-linejoin="miter" stroke-miterlimit="10" stroke-dasharray="" stroke-dashoffset="0" font-family="Sans Serif" font-weight="normal" text-anchor="start" style="mix-blend-mode: normal"><tspan x="0" dy="0">A2</tspan><tspan x="0" dy="46.150000000000006px">B2</tspan><tspan x="0" dy="46.150000000000006px">C2</tspan><tspan x="0" dy="46.150000000000006px">D2</tspan><tspan x="0" dy="46.150000000000006px">E2</tspan><tspan x="0" dy="46.150000000000006px">F2</tspan><tspan x="0" dy="46.150000000000006px">G2</tspan><tspan x="0" dy="46.150000000000006px">H2</tspan><tspan x="0" dy="46.150000000000006px">I2</tspan><tspan x="0" dy="46.150000000000006px">J2</tspan></text><path d="M455.7002,159v-12.5h19v12.5z" fill="none" stroke="#ffffff" stroke-width="1.5" stroke-linecap="butt"/><path d="M455.7002,175v-13.5h19v13.5z" fill="none" stroke="#ffffff" stroke-width="1.5" stroke-linecap="butt"/><path d="M455.7002,190v-13.5h19v13.5z" fill="none" stroke="#ffffff" stroke-width="1.5" stroke-linecap="butt"/><path d="M455.7002,205v-13.5h19v13.5z" fill="none" stroke="#ffffff" stroke-width="1.5" stroke-linecap="butt"/><path d="M455.7002,220v-13.5h19v13.5z" fill="none" stroke="#ffffff" stroke-width="1.5" stroke-linecap="butt"/><path d="M455.7002,235v-13.5h19v13.5z" fill="none" stroke="#ffffff" stroke-width="1.5" stroke-linecap="butt"/><path d="M455.7002,250v-13.5h19v13.5z" fill="none" stroke="#ffffff" stroke-width="1.5" stroke-linecap="butt"/><path d="M455.7002,265v-13.5h19v13.5z" fill="none" stroke="#ffffff" stroke-width="1.5" stroke-linecap="butt"/><path d="M455.7002,280v-13.5h19v13.5z" fill="none" stroke="#ffffff" stroke-width="1.5" stroke-linecap="butt"/><path d="M455.7002,294.5v-13.5h19v13.5z" fill="none" stroke="#ffffff" stroke-width="1.5" stroke-linecap="butt"/><path d="M160.8,226c0,-42.52593 34.47407,-77 77,-77c42.52593,0 77,34.47407 77,77c0,42.52593 -34.47407,77 -77,77c-42.52593,0 -77,-34.47407 -77,-77z" fill="none" stroke="#ffffff" stroke-width="2" stroke-linecap="butt"/><path d="M188.6,226c0,-27.06195 21.93805,-49 49,-49c27.06195,0 49,21.93805 49,49c0,27.06195 -21.93805,49 -49,49c-27.06195,0 -49,-21.93805 -49,-49z" fill="none" stroke="#ffffff" stroke-width="2" stroke-linecap="butt"/><path d="M235.31437,177.78966l0.17126,96.02068" fill="none" stroke="#ffffff" stroke-width="2" stroke-linecap="round"/><path d="M240.08563,274.01034l-0.17126,-96.02068" fill="none" stroke="#ffffff" stroke-width="2" stroke-linecap="round"/><path d="M237.15652,176.1514l-0.11304,-26.40279" fill="none" stroke="#ffffff" stroke-width="2" stroke-linecap="round"/><path d="M201.10403,159.31953l12.49194,23.26094" fill="none" stroke="#ffffff" stroke-width="2" stroke-linecap="round"/><path d="M173.11839,186.68895l22.21322,14.2721" fill="none" stroke="#ffffff" stroke-width="2" stroke-linecap="round"/><path d="M161.52352,225.85564l26.40296,-0.06127" fill="none" stroke="#ffffff" stroke-width="2" stroke-linecap="round"/><path d="M170.25393,261.52968l22.44214,-13.90936" fill="none" stroke="#ffffff" stroke-width="2" stroke-linecap="round"/><path d="M195.33903,289.267l14.77195,-21.884" fill="none" stroke="#ffffff" stroke-width="2" stroke-linecap="round"/><path d="M237.81407,302.52621l-0.17813,-26.40243" fill="none" stroke="#ffffff" stroke-width="2" stroke-linecap="round"/><path d="M276.98362,292.30331l-13.21723,-22.85662" fill="none" stroke="#ffffff" stroke-width="2" stroke-linecap="round"/><path d="M302.91766,265.41756l-21.38531,-15.48512" fill="none" stroke="#ffffff" stroke-width="2" stroke-linecap="round"/><path d="M314.02582,226.01116l-26.40163,-0.27231" fill="none" stroke="#ffffff" stroke-width="2" stroke-linecap="round"/><path d="M302.74297,186.82391l-23.03593,12.90218" fill="none" stroke="#ffffff" stroke-width="2" stroke-linecap="round"/><path d="M276.68411,160.86772l-15.71822,21.21457" fill="none" stroke="#ffffff" stroke-width="2" stroke-linecap="round"/><path d="M222.75,226c0,-8.42234 6.82766,-15.25 15.25,-15.25c8.42234,0 15.25,6.82766 15.25,15.25c0,8.42234 -6.82766,15.25 -15.25,15.25c-8.42234,0 -15.25,-6.82766 -15.25,-15.25z" fill="none" stroke="#ffffff" stroke-width="2" stroke-linecap="butt"/><path d="M236.43334,244.75v-47h2.43333v47z" fill="#000000" stroke="none" stroke-width="0" stroke-linecap="butt"/><path d="M51.40672,178.02732l93.15938,47.47978l-91.66182,-0.33365" fill="none" stroke="#ffffff" stroke-width="2" stroke-linecap="round"/><path d="M50.5,271l95,-44" fill="none" stroke="#ffffff" stroke-width="2" stroke-linecap="round"/><path d="M431.06854,225.17346l-91.66182,0.33366l93.15938,-47.47979" data-paper-data="{&quot;index&quot;:null}" fill="none" stroke="#ffffff" stroke-width="2" stroke-linecap="round"/><path d="M337.5,226l95,44" data-paper-data="{&quot;index&quot;:null}" fill="none" stroke="#ffffff" stroke-width="2" stroke-linecap="round"/><path d="M247.25,165.5c0,-3.31371 2.68629,-6 6,-6c3.31371,0 6,2.68629 6,6c0,3.31371 -2.68629,6 -6,6c-3.31371,0 -6,-2.68629 -6,-6z" fill="#47ff00" stroke="none" stroke-width="0" stroke-linecap="butt"/><path d="M276.25,181.5c0,-3.31371 2.68629,-6 6,-6c3.31371,0 6,2.68629 6,6c0,3.31371 -2.68629,6 -6,6c-3.31371,0 -6,-2.68629 -6,-6z" fill="#47ff00" stroke="none" stroke-width="0" stroke-linecap="butt"/><path d="M292.75,208.5c0,-3.31371 2.68629,-6 6,-6c3.31371,0 6,2.68629 6,6c0,3.31371 -2.68629,6 -6,6c-3.31371,0 -6,-2.68629 -6,-6z" fill="#47ff00" stroke="none" stroke-width="0" stroke-linecap="butt"/><path d="M292.75,242c0,-3.31371 2.68629,-6 6,-6c3.31371,0 6,2.68629 6,6c0,3.31371 -2.68629,6 -6,6c-3.31371,0 -6,-2.68629 -6,-6z" fill="#47ff00" stroke="none" stroke-width="0" stroke-linecap="butt"/><path d="M278.25,269.5c0,-3.31371 2.68629,-6 6,-6c3.31371,0 6,2.68629 6,6c0,3.31371 -2.68629,6 -6,6c-3.31371,0 -6,-2.68629 -6,-6z" fill="#47ff00" stroke="none" stroke-width="0" stroke-linecap="butt"/><path d="M248.75,287c0,-3.31371 2.68629,-6 6,-6c3.31371,0 6,2.68629 6,6c0,3.31371 -2.68629,6 -6,6c-3.31371,0 -6,-2.68629 -6,-6z" fill="#47ff00" stroke="none" stroke-width="0" stroke-linecap="butt"/><path d="M213.25,285.5c0,-3.31371 2.68629,-6 6,-6c3.31371,0 6,2.68629 6,6c0,3.31371 -2.68629,6 -6,6c-3.31371,0 -6,-2.68629 -6,-6z" fill="#47ff00" stroke="none" stroke-width="0" stroke-linecap="butt"/><path d="M185.25,268c0,-3.31371 2.68629,-6 6,-6c3.31371,0 6,2.68629 6,6c0,3.31371 -2.68629,6 -6,6c-3.31371,0 -6,-2.68629 -6,-6z" fill="#47ff00" stroke="none" stroke-width="0" stroke-linecap="butt"/><path d="M170.75,241c0,-3.31371 2.68629,-6 6,-6c3.31371,0 6,2.68629 6,6c0,3.31371 -2.68629,6 -6,6c-3.31371,0 -6,-2.68629 -6,-6z" fill="#47ff00" stroke="none" stroke-width="0" stroke-linecap="butt"/><path d="M171.25,209c0,-3.31371 2.68629,-6 6,-6c3.31371,0 6,2.68629 6,6c0,3.31371 -2.68629,6 -6,6c-3.31371,0 -6,-2.68629 -6,-6z" fill="#47ff00" stroke="none" stroke-width="0" stroke-linecap="butt"/><path d="M188.75,179.5c0,-3.31371 2.68629,-6 6,-6c3.31371,0 6,2.68629 6,6c0,3.31371 -2.68629,6 -6,6c-3.31371,0 -6,-2.68629 -6,-6z" fill="#47ff00" stroke="none" stroke-width="0" stroke-linecap="butt"/><path d="M97,397v-60h71v60z" fill="#000000" stroke="none" stroke-width="0" stroke-linecap="butt"/></g></g></svg>